<svg width="120" height="22" viewBox="0 0 120 22" fill="none" xmlns="http://www.w3.org/2000/svg">
<path d="M78.2161 8.15816C77.8102 7.72258 77.4147 7.4322 77.0296 7.287C76.6549 7.14181 76.275 7.06921 75.8899 7.06921C75.3174 7.06921 74.797 7.17292 74.3286 7.38034C73.8706 7.57739 73.4751 7.8574 73.142 8.22038C72.809 8.57299 72.5488 8.98783 72.3614 9.46489C72.1845 9.94195 72.096 10.4553 72.096 11.005C72.096 11.5961 72.1845 12.1406 72.3614 12.6384C72.5488 13.1362 72.809 13.5666 73.142 13.9296C73.4751 14.2925 73.8706 14.5777 74.3286 14.7852C74.797 14.9926 75.3174 15.0963 75.8899 15.0963C76.3374 15.0963 76.7694 14.9926 77.1857 14.7852C77.6124 14.5674 78.008 14.2251 78.3723 13.7584L79.9959 14.9096C79.4963 15.5941 78.8875 16.0919 78.1693 16.403C77.4511 16.7141 76.6861 16.8697 75.8742 16.8697C75.0208 16.8697 74.2349 16.7349 73.5167 16.4652C72.809 16.1852 72.1949 15.7963 71.6745 15.2985C71.1645 14.7903 70.7637 14.1836 70.4723 13.4784C70.1809 12.7732 70.0352 11.9902 70.0352 11.1294C70.0352 10.2479 70.1809 9.44933 70.4723 8.73374C70.7637 8.00778 71.1645 7.39071 71.6745 6.88254C72.1949 6.37436 72.809 5.98546 73.5167 5.71581C74.2349 5.4358 75.0208 5.29579 75.8742 5.29579C76.6236 5.29579 77.3158 5.43061 77.9507 5.70026C78.596 5.95953 79.1945 6.40548 79.7462 7.0381L78.2161 8.15816Z" fill="white"/>
<path d="M83.3303 10.1649H83.3615C83.5073 9.8538 83.7623 9.57379 84.1266 9.32488C84.5013 9.06561 84.9801 8.93598 85.5629 8.93598C86.0625 8.93598 86.4841 9.01894 86.8275 9.18488C87.1814 9.35081 87.4676 9.5686 87.6862 9.83824C87.9048 10.1079 88.0609 10.419 88.1546 10.7716C88.2483 11.1242 88.2951 11.4924 88.2951 11.8761V16.5897H86.4216V12.8095C86.4216 12.6021 86.4112 12.3739 86.3904 12.125C86.3696 11.8658 86.3123 11.6272 86.2186 11.4094C86.1354 11.1813 86.0001 10.9946 85.8127 10.8494C85.6254 10.6938 85.3704 10.6161 85.0477 10.6161C84.7355 10.6161 84.47 10.6679 84.2515 10.7716C84.0433 10.8753 83.8664 11.0153 83.7206 11.1916C83.5853 11.3679 83.4865 11.5702 83.424 11.7983C83.3616 12.0265 83.3303 12.265 83.3303 12.5139V16.5897H81.4568V4.8291H83.3303V10.1649Z" fill="white"/>
<path d="M90.3594 12.8562C90.3594 12.265 90.4635 11.7309 90.6716 11.2539C90.8902 10.7664 91.1816 10.3516 91.5459 10.0094C91.9102 9.66712 92.3422 9.40266 92.8418 9.21599C93.3414 9.02931 93.8722 8.93598 94.4342 8.93598C94.9963 8.93598 95.5271 9.02931 96.0267 9.21599C96.5263 9.40266 96.9583 9.66712 97.3226 10.0094C97.6869 10.3516 97.9731 10.7664 98.1813 11.2539C98.3998 11.7309 98.5091 12.265 98.5091 12.8562C98.5091 13.4473 98.3998 13.9866 98.1813 14.474C97.9731 14.9511 97.6869 15.3607 97.3226 15.703C96.9583 16.0452 96.5263 16.3097 96.0267 16.4964C95.5271 16.683 94.9963 16.7764 94.4342 16.7764C93.8722 16.7764 93.3414 16.683 92.8418 16.4964C92.3422 16.3097 91.9102 16.0452 91.5459 15.703C91.1816 15.3607 90.8902 14.9511 90.6716 14.474C90.4635 13.9866 90.3594 13.4473 90.3594 12.8562ZM92.2329 12.8562C92.2329 13.1466 92.2797 13.4266 92.3734 13.6962C92.4775 13.9659 92.6232 14.2044 92.8105 14.4118C93.0083 14.6192 93.2425 14.7852 93.5131 14.9096C93.7837 15.0341 94.0908 15.0963 94.4342 15.0963C94.7777 15.0963 95.0848 15.0341 95.3554 14.9096C95.626 14.7852 95.855 14.6192 96.0423 14.4118C96.2401 14.2044 96.3858 13.9659 96.4795 13.6962C96.5836 13.4266 96.6356 13.1466 96.6356 12.8562C96.6356 12.5658 96.5836 12.2858 96.4795 12.0161C96.3858 11.7465 96.2401 11.508 96.0423 11.3005C95.855 11.0931 95.626 10.9272 95.3554 10.8027C95.0848 10.6783 94.7777 10.6161 94.4342 10.6161C94.0908 10.6161 93.7837 10.6783 93.5131 10.8027C93.2425 10.9272 93.0083 11.0931 92.8105 11.3005C92.6232 11.508 92.4775 11.7465 92.3734 12.0161C92.2797 12.2858 92.2329 12.5658 92.2329 12.8562Z" fill="white"/>
<path d="M100.607 9.12265H102.48V16.5897H100.607V9.12265ZM100.341 6.58697C100.341 6.28621 100.451 6.02694 100.669 5.80915C100.898 5.58099 101.184 5.46691 101.528 5.46691C101.871 5.46691 102.158 5.57581 102.387 5.7936C102.626 6.00101 102.746 6.26547 102.746 6.58697C102.746 6.90847 102.626 7.17811 102.387 7.3959C102.158 7.60332 101.871 7.70702 101.528 7.70702C101.184 7.70702 100.898 7.59813 100.669 7.38034C100.451 7.15218 100.341 6.88772 100.341 6.58697Z" fill="white"/>
<path d="M110.064 11.3628C109.846 11.1346 109.617 10.9531 109.377 10.8183C109.138 10.6835 108.893 10.6161 108.643 10.6161C108.3 10.6161 107.993 10.6783 107.722 10.8027C107.452 10.9272 107.218 11.0931 107.02 11.3005C106.832 11.508 106.687 11.7465 106.583 12.0161C106.489 12.2858 106.442 12.5658 106.442 12.8562C106.442 13.1466 106.489 13.4266 106.583 13.6962C106.687 13.9659 106.832 14.2044 107.02 14.4118C107.218 14.6192 107.452 14.7852 107.722 14.9096C107.993 15.0341 108.3 15.0963 108.643 15.0963C108.935 15.0963 109.206 15.0392 109.455 14.9252C109.705 14.8007 109.919 14.6244 110.095 14.3962L111.344 15.7341C111.157 15.9208 110.939 16.0815 110.689 16.2163C110.449 16.3512 110.205 16.4601 109.955 16.543C109.705 16.626 109.466 16.683 109.237 16.7141C109.008 16.7556 108.81 16.7764 108.643 16.7764C108.081 16.7764 107.551 16.683 107.051 16.4964C106.551 16.3097 106.119 16.0452 105.755 15.703C105.391 15.3607 105.099 14.9511 104.881 14.474C104.673 13.9866 104.569 13.4473 104.569 12.8562C104.569 12.265 104.673 11.7309 104.881 11.2539C105.099 10.7664 105.391 10.3516 105.755 10.0094C106.119 9.66712 106.551 9.40266 107.051 9.21599C107.551 9.02931 108.081 8.93598 108.643 8.93598C109.122 8.93598 109.601 9.02931 110.08 9.21599C110.569 9.39229 110.996 9.67749 111.36 10.0716L110.064 11.3628Z" fill="white"/>
<path d="M114.286 13.5095C114.349 14.0696 114.567 14.5051 114.942 14.8163C115.317 15.1274 115.769 15.283 116.3 15.283C116.769 15.283 117.159 15.1896 117.471 15.0029C117.794 14.8059 118.075 14.5622 118.314 14.2718L119.657 15.283C119.22 15.8222 118.731 16.206 118.189 16.4341C117.648 16.6623 117.081 16.7764 116.488 16.7764C115.926 16.7764 115.395 16.683 114.895 16.4964C114.395 16.3097 113.964 16.0452 113.599 15.703C113.235 15.3607 112.944 14.9511 112.725 14.474C112.517 13.9866 112.413 13.4473 112.413 12.8562C112.413 12.265 112.517 11.7309 112.725 11.2539C112.944 10.7664 113.235 10.3516 113.599 10.0094C113.964 9.66712 114.395 9.40266 114.895 9.21599C115.395 9.02931 115.926 8.93598 116.488 8.93598C117.008 8.93598 117.482 9.02931 117.908 9.21599C118.345 9.39229 118.715 9.65157 119.017 9.99381C119.329 10.336 119.568 10.7613 119.735 11.2694C119.912 11.7672 120 12.3428 120 12.9962V13.5095H114.286ZM118.127 12.1095C118.116 11.5598 117.945 11.1294 117.612 10.8183C117.279 10.4968 116.815 10.336 116.222 10.336C115.66 10.336 115.213 10.4968 114.879 10.8183C114.557 11.1398 114.359 11.5702 114.286 12.1095H118.127Z" fill="white"/>
<path d="M36.7832 15.7808C35.4197 16.5067 33.8949 16.8697 32.2087 16.8697C31.3552 16.8697 30.5694 16.7349 29.8512 16.4652C29.1435 16.1852 28.5294 15.7963 28.0089 15.2985C27.4989 14.7903 27.0982 14.1836 26.8068 13.4784C26.5153 12.7732 26.3696 11.9902 26.3696 11.1294C26.3696 10.2479 26.5153 9.44933 26.8068 8.73374C27.0982 8.00778 27.4989 7.39071 28.0089 6.88254C28.5294 6.37436 29.1435 5.98546 29.8512 5.71581C30.5694 5.4358 31.3552 5.29579 32.2087 5.29579C33.0518 5.29579 33.8428 5.3995 34.5818 5.60692C35.3208 5.80397 35.9817 6.16176 36.5646 6.68031L35.1126 8.1426C34.7588 7.80036 34.3268 7.5359 33.8168 7.34923C33.3172 7.16255 32.7864 7.06921 32.2243 7.06921C31.6519 7.06921 31.1315 7.17292 30.6631 7.38034C30.2051 7.57739 29.8096 7.8574 29.4765 8.22038C29.1435 8.57299 28.8832 8.98783 28.6959 9.46489C28.519 9.94195 28.4305 10.4553 28.4305 11.005C28.4305 11.5961 28.519 12.1406 28.6959 12.6384C28.8832 13.1362 29.1435 13.5666 29.4765 13.9296C29.8096 14.2925 30.2051 14.5777 30.6631 14.7852C31.1315 14.9926 31.6519 15.0963 32.2243 15.0963C32.7239 15.0963 33.1923 15.0496 33.6295 14.9563C34.077 14.8629 34.4725 14.7177 34.816 14.5207V11.9228H32.5522V10.1494H36.7832V15.7808Z" fill="#FFC858"/>
<path d="M38.8803 12.8562C38.8803 12.265 38.9844 11.7309 39.1925 11.2539C39.4111 10.7664 39.7025 10.3516 40.0668 10.0094C40.4311 9.66712 40.8631 9.40266 41.3627 9.21599C41.8623 9.02931 42.3931 8.93598 42.9551 8.93598C43.5172 8.93598 44.048 9.02931 44.5476 9.21599C45.0472 9.40266 45.4792 9.66712 45.8435 10.0094C46.2078 10.3516 46.494 10.7664 46.7021 11.2539C46.9207 11.7309 47.03 12.265 47.03 12.8562C47.03 13.4473 46.9207 13.9866 46.7021 14.474C46.494 14.9511 46.2078 15.3607 45.8435 15.703C45.4792 16.0452 45.0472 16.3097 44.5476 16.4964C44.048 16.683 43.5172 16.7764 42.9551 16.7764C42.3931 16.7764 41.8623 16.683 41.3627 16.4964C40.8631 16.3097 40.4311 16.0452 40.0668 15.703C39.7025 15.3607 39.4111 14.9511 39.1925 14.474C38.9844 13.9866 38.8803 13.4473 38.8803 12.8562ZM40.7538 12.8562C40.7538 13.1466 40.8006 13.4266 40.8943 13.6962C40.9984 13.9659 41.1441 14.2044 41.3314 14.4118C41.5292 14.6192 41.7634 14.7852 42.034 14.9096C42.3046 15.0341 42.6117 15.0963 42.9551 15.0963C43.2986 15.0963 43.6057 15.0341 43.8763 14.9096C44.1469 14.7852 44.3759 14.6192 44.5632 14.4118C44.761 14.2044 44.9067 13.9659 45.0004 13.6962C45.1045 13.4266 45.1565 13.1466 45.1565 12.8562C45.1565 12.5658 45.1045 12.2858 45.0004 12.0161C44.9067 11.7465 44.761 11.508 44.5632 11.3005C44.3759 11.0931 44.1469 10.9272 43.8763 10.8027C43.6057 10.6783 43.2986 10.6161 42.9551 10.6161C42.6117 10.6161 42.3046 10.6783 42.034 10.8027C41.7634 10.9272 41.5292 11.0931 41.3314 11.3005C41.1441 11.508 40.9984 11.7465 40.8943 12.0161C40.8006 12.2858 40.7538 12.5658 40.7538 12.8562Z" fill="#FFC858"/>
<path d="M48.7217 12.8562C48.7217 12.265 48.8257 11.7309 49.0339 11.2539C49.2525 10.7664 49.5439 10.3516 49.9082 10.0094C50.2725 9.66712 50.7044 9.40266 51.204 9.21599C51.7036 9.02931 52.2345 8.93598 52.7965 8.93598C53.3586 8.93598 53.8894 9.02931 54.389 9.21599C54.8886 9.40266 55.3205 9.66712 55.6848 10.0094C56.0491 10.3516 56.3354 10.7664 56.5435 11.2539C56.7621 11.7309 56.8714 12.265 56.8714 12.8562C56.8714 13.4473 56.7621 13.9866 56.5435 14.474C56.3354 14.9511 56.0491 15.3607 55.6848 15.703C55.3205 16.0452 54.8886 16.3097 54.389 16.4964C53.8894 16.683 53.3586 16.7764 52.7965 16.7764C52.2345 16.7764 51.7036 16.683 51.204 16.4964C50.7044 16.3097 50.2725 16.0452 49.9082 15.703C49.5439 15.3607 49.2525 14.9511 49.0339 14.474C48.8257 13.9866 48.7217 13.4473 48.7217 12.8562ZM50.5952 12.8562C50.5952 13.1466 50.642 13.4266 50.7357 13.6962C50.8398 13.9659 50.9855 14.2044 51.1728 14.4118C51.3706 14.6192 51.6048 14.7852 51.8754 14.9096C52.146 15.0341 52.453 15.0963 52.7965 15.0963C53.14 15.0963 53.447 15.0341 53.7177 14.9096C53.9883 14.7852 54.2173 14.6192 54.4046 14.4118C54.6024 14.2044 54.7481 13.9659 54.8418 13.6962C54.9458 13.4266 54.9979 13.1466 54.9979 12.8562C54.9979 12.5658 54.9458 12.2858 54.8418 12.0161C54.7481 11.7465 54.6024 11.508 54.4046 11.3005C54.2173 11.0931 53.9883 10.9272 53.7177 10.8027C53.447 10.6783 53.14 10.6161 52.7965 10.6161C52.453 10.6161 52.146 10.6783 51.8754 10.8027C51.6048 10.9272 51.3706 11.0931 51.1728 11.3005C50.9855 11.508 50.8398 11.7465 50.7357 12.0161C50.642 12.2858 50.5952 12.5658 50.5952 12.8562Z" fill="#FFC858"/>
<path d="M64.8705 15.4696H64.8393C64.5686 15.926 64.2044 16.2578 63.7464 16.4652C63.2884 16.6727 62.794 16.7764 62.2632 16.7764C61.6803 16.7764 61.1599 16.6778 60.702 16.4808C60.2544 16.2734 59.8693 15.9934 59.5466 15.6408C59.224 15.2881 58.9794 14.8733 58.8128 14.3962C58.6463 13.9192 58.563 13.4058 58.563 12.8562C58.563 12.3065 58.6515 11.7932 58.8284 11.3161C59.0054 10.839 59.25 10.4242 59.5622 10.0716C59.8849 9.71898 60.27 9.44415 60.7176 9.2471C61.1651 9.03968 61.6543 8.93598 62.1851 8.93598C62.539 8.93598 62.8513 8.97227 63.1219 9.04487C63.3925 9.11747 63.6319 9.2108 63.8401 9.32488C64.0482 9.43896 64.2252 9.56341 64.3709 9.69824C64.5166 9.82269 64.6363 9.94714 64.73 10.0716H64.7768V4.8291H66.6503V16.5897H64.8705V15.4696ZM60.4365 12.8562C60.4365 13.1466 60.4834 13.4266 60.577 13.6962C60.6811 13.9659 60.8269 14.2044 61.0142 14.4118C61.212 14.6192 61.4462 14.7852 61.7168 14.9096C61.9874 15.0341 62.2944 15.0963 62.6379 15.0963C62.9814 15.0963 63.2884 15.0341 63.559 14.9096C63.8297 14.7852 64.0586 14.6192 64.246 14.4118C64.4438 14.2044 64.5895 13.9659 64.6831 13.6962C64.7872 13.4266 64.8393 13.1466 64.8393 12.8562C64.8393 12.5658 64.7872 12.2858 64.6831 12.0161C64.5895 11.7465 64.4438 11.508 64.246 11.3005C64.0586 11.0931 63.8297 10.9272 63.559 10.8027C63.2884 10.6783 62.9814 10.6161 62.6379 10.6161C62.2944 10.6161 61.9874 10.6783 61.7168 10.8027C61.4462 10.9272 61.212 11.0931 61.0142 11.3005C60.8269 11.508 60.6811 11.7465 60.577 12.0161C60.4834 12.2858 60.4365 12.5658 60.4365 12.8562Z" fill="#FFC858"/>
<path fill-rule="evenodd" clip-rule="evenodd" d="M16.9952 7.97648C16.3619 6.76984 15.3447 5.74713 14.0134 5.10742C10.7234 3.52657 6.76083 4.88328 5.16272 8.13773C3.56461 11.3922 4.93613 15.312 8.2261 16.8928C11.4061 18.4208 15.2145 17.2043 16.9087 14.1824H14.1775C12.8751 15.4065 10.8923 15.7705 9.181 14.9482C6.97672 13.889 6.0578 11.2628 7.12853 9.08231C8.19927 6.90184 10.8542 5.99284 13.0585 7.05201C13.552 7.28915 13.9811 7.60483 14.3378 7.97648H16.9952Z" fill="white"/>
<path fill-rule="evenodd" clip-rule="evenodd" d="M21.8118 7.97635C21.1021 5.52044 19.5474 3.37763 17.4057 1.92591C15.0758 0.346663 12.2257 -0.296411 9.43397 0.127223C6.64223 0.550858 4.11807 2.00946 2.37385 4.20693C0.629634 6.40441 -0.20392 9.17608 0.0423912 11.9593C0.288703 14.7426 1.59642 17.3288 3.70009 19.1931C5.80376 21.0574 8.54574 22.0599 11.3694 21.9973C14.1931 21.9346 16.8869 20.8115 18.9039 18.8558C20.921 16.9001 22.1102 14.2585 22.2301 11.4671L20.0081 11.3737C19.9122 13.6068 18.9608 15.7201 17.3472 17.2846C15.7335 18.8492 13.5785 19.7477 11.3196 19.7978C9.06061 19.8479 6.86703 19.0459 5.18409 17.5545C3.50116 16.0631 2.45498 13.9941 2.25793 11.7675C2.06088 9.54087 2.72772 7.32353 4.1231 5.56555C5.51847 3.80757 7.5378 2.64069 9.77119 2.30179C12.0046 1.96288 14.2846 2.47734 16.1486 3.74073C17.6837 4.78129 18.8418 6.26566 19.4745 7.97635H21.8118Z" fill="#FFC858"/>
<rect x="10.8232" y="10.071" width="11.4166" height="1.95556" fill="#FFC858"/>
</svg>
