<svg width="96" height="87" viewBox="0 0 96 87" fill="none" xmlns="http://www.w3.org/2000/svg">
<path d="M44.6116 0C14.0586 0 0.870638 23.7921 0.870638 23.7921L4.75265 26.2232C4.75265 26.2232 -0.132429 34.3507 0.0027548 44.7752C0.0027548 66.0554 19.3657 86.1017 47.8694 86.1017C73.7641 86.1017 95.1547 67.6628 95.1547 44.8275C95.1547 15.045 68.7557 0 44.6116 0ZM44.8767 7.25988C68.7477 7.25988 87.271 24.0887 87.271 43.653C87.271 64.3925 69.4414 78.8156 48.6646 78.8156C33.3736 78.8156 19.5795 68.6282 19.5795 54.6607C19.5795 46.5934 24.4807 40.969 29.9729 37.9716L30.7766 38.7346C29.2736 39.7635 24.9878 45.7862 24.9878 51.7059C24.9878 62.6954 34.8386 70.3064 47.2495 70.3064C63.059 70.3064 73.6027 58.5097 73.6027 44.8126C73.6027 28.876 57.5233 15.3464 38.173 15.3464C27.4702 15.3464 18.3862 19.3733 13.1665 22.928L12.3542 22.2848C19.1831 13.0733 31.0089 7.25988 44.8767 7.25988ZM37.754 22.5054C50.1023 22.5054 62.1582 29.6522 65.1675 39.7968L64.073 40.1596C58.6698 33.9174 49.8163 28.7442 39.3615 28.7442C20.1234 28.7442 10.0202 44.038 11.5034 56.8114L10.3704 57.1742C10.3704 57.1742 8.24559 53.0725 8.24559 48.2087C8.24559 34.1239 21.4669 22.5054 37.754 22.5054ZM45.9156 40.182C51.7619 40.182 56.4372 44.3275 56.4372 49.2485C56.4372 53.3209 53.4488 55.7342 53.4488 55.7342L56.9887 57.8999C56.9887 57.8999 53.4784 62.7211 46.3132 62.7211C39.4591 62.7211 33.3974 57.8813 33.3974 51.3731C33.3974 44.6668 39.991 40.182 45.9156 40.182Z" fill="#571BD4"/>
<path fill-rule="evenodd" clip-rule="evenodd" d="M5.60974 26.7384L5.60854 26.7404L5.60043 26.7541C5.59277 26.7671 5.58066 26.7879 5.5644 26.8161C5.53186 26.8726 5.48273 26.9592 5.4194 27.0744C5.29272 27.305 5.10934 27.65 4.88842 28.0982C4.4464 28.9949 3.85529 30.3022 3.26755 31.9297C2.09026 35.1896 0.937087 39.7048 1.00267 44.7622L1.00284 44.7752C1.00284 65.4193 19.8302 85.1017 47.8694 85.1017C73.3477 85.1017 94.1547 66.9838 94.1547 44.8275C94.1547 30.2687 87.7169 19.3443 78.3231 12.0345C68.9039 4.70498 56.4922 1 44.6116 1C29.6169 1 18.9013 6.83219 11.9251 12.6633C8.43359 15.5817 5.87986 18.4996 4.20162 20.6838C3.36286 21.7755 2.74394 22.6824 2.33695 23.3124C2.30213 23.3663 2.26886 23.4182 2.23714 23.468L6.11556 25.8969L5.60974 26.7384ZM0.870638 23.7921C0.870638 23.7921 14.0586 0 44.6116 0C68.7557 0 95.1547 15.045 95.1547 44.8275C95.1547 67.6628 73.7641 86.1017 47.8694 86.1017C19.3657 86.1017 0.0027548 66.0554 0.0027548 44.7752C-0.132429 34.3507 4.75265 26.2232 4.75265 26.2232L0.870638 23.7921ZM30.1331 36.7449L32.3623 38.861L31.3415 39.5598C31.1017 39.7239 30.6304 40.1883 30.0324 40.9704C29.4536 41.7273 28.8065 42.715 28.202 43.8548C26.985 46.1493 25.9878 48.9695 25.9878 51.7059C25.9878 61.9629 35.1915 69.3064 47.2495 69.3064C62.4967 69.3064 72.6027 57.9675 72.6027 44.8126C72.6027 29.5899 57.1478 16.3464 38.173 16.3464C27.7099 16.3464 18.8185 20.2888 13.7294 23.7546L13.1219 24.1683L10.974 22.4673L11.5509 21.6892C18.5919 12.1916 30.7338 6.25988 44.8767 6.25988C69.1689 6.25988 88.271 23.4138 88.271 43.653C88.271 65.0624 69.8682 79.8156 48.6646 79.8156C33.0399 79.8156 18.5795 69.3763 18.5795 54.6607C18.5795 46.1319 23.7742 40.2154 29.4938 37.0938L30.1331 36.7449ZM66.4017 40.4412L63.7539 41.3189L63.3169 40.8141C58.0735 34.7565 49.4831 29.7442 39.3615 29.7442C20.7384 29.7442 11.0805 44.4996 12.4967 56.6961L12.5916 57.5129L9.87103 58.3842L9.48251 57.6342L10.3704 57.1742L11.5034 56.8114C10.0202 44.038 20.1234 28.7442 39.3615 28.7442C49.8163 28.7442 58.6698 33.9174 64.073 40.1596L65.1675 39.7968C62.1582 29.6522 50.1023 22.5054 37.754 22.5054C21.4669 22.5054 8.24559 34.1239 8.24559 48.2087C8.24559 53.0725 10.3704 57.1742 10.3704 57.1742C9.48251 57.6342 9.48264 57.6345 9.48251 57.6342L9.48125 57.6318L9.47922 57.6278L9.4729 57.6155L9.45156 57.573C9.43359 57.537 9.40831 57.4855 9.37677 57.4195C9.3137 57.2874 9.2255 57.0968 9.12062 56.8544C8.911 56.3698 8.63377 55.6756 8.35704 54.8247C7.80563 53.1292 7.24559 50.7791 7.24559 48.2087C7.24559 33.4488 21.046 21.5054 37.754 21.5054C50.3924 21.5054 62.9524 28.8131 66.1262 39.5124L66.4017 40.4412ZM56.3191 58.6625C54.9899 60.0216 51.6748 62.7211 46.3132 62.7211C39.4591 62.7211 33.3974 57.8813 33.3974 51.3731C33.3974 44.6668 39.991 40.182 45.9156 40.182C51.7619 40.182 56.4372 44.3275 56.4372 49.2485C56.4372 52.0095 55.0636 54.0079 54.1789 55.0086C53.7587 55.484 53.4488 55.7342 53.4488 55.7342L56.9887 57.8999C56.9887 57.8999 56.7663 58.2054 56.3191 58.6625ZM56.9887 57.8999C57.7971 58.4885 57.7969 58.4889 57.7965 58.4893L57.7959 58.4902L57.7943 58.4924L57.79 58.4981L57.7776 58.5148C57.7676 58.5281 57.7541 58.5459 57.737 58.5679C57.7028 58.6119 57.6544 58.6726 57.5918 58.7476C57.4666 58.8977 57.2841 59.1055 57.044 59.3516C56.5642 59.8433 55.8508 60.4913 54.9001 61.1375C52.9943 62.433 50.133 63.7211 46.3132 63.7211C39.0619 63.7211 32.3974 58.5768 32.3974 51.3731C32.3974 47.6659 34.2258 44.6014 36.8006 42.4895C39.3642 40.3868 42.7167 39.182 45.9156 39.182C52.1782 39.182 57.4372 43.6484 57.4372 49.2485C57.4372 51.5373 56.5965 53.3502 55.7731 54.5761C55.5228 54.9489 55.2722 55.2702 55.0438 55.5378L58.435 57.6124L57.7971 58.4885L56.9887 57.8999ZM30.0352 39.4096C28.1969 41.3838 24.9878 46.5835 24.9878 51.7059C24.9878 62.6954 34.8386 70.3064 47.2495 70.3064C63.059 70.3064 73.6027 58.5097 73.6027 44.8126C73.6027 28.876 57.5233 15.3464 38.173 15.3464C27.4702 15.3464 18.3862 19.3733 13.1665 22.928L12.3542 22.2848C19.1831 13.0733 31.0089 7.25988 44.8767 7.25988C68.7477 7.25988 87.271 24.0887 87.271 43.653C87.271 64.3925 69.4414 78.8156 48.6646 78.8156C33.3736 78.8156 19.5795 68.6282 19.5795 54.6607C19.5795 46.5934 24.4807 40.969 29.9729 37.9716L30.7766 38.7346C30.5742 38.8731 30.3213 39.1023 30.0352 39.4096Z" fill="#571BD4"/>
</svg>
