<svg width="93" height="69" viewBox="0 0 93 69" fill="none" xmlns="http://www.w3.org/2000/svg">
<g clip-path="url(#clip0)">
<path fill-rule="evenodd" clip-rule="evenodd" d="M32.0484 57.9841C32.6971 56.4875 34.2411 55.5284 36.0844 55.5284C37.5205 55.5284 38.2796 56.1806 38.0857 57.2256L36.7215 64.7551L42.1499 57.2256C42.9039 56.1806 44.2244 55.5284 45.5732 55.5284C47.2662 55.5284 48.0061 56.251 47.6798 57.572L47.6599 57.6456L47.6599 57.6457C47.6302 57.7565 47.5965 57.8821 47.5526 57.9841L42.8692 68.7133H39.7029L43.7761 59.3959L37.92 67.2466C37.0503 68.4171 36.0728 69 34.9553 69C33.8904 69 33.3881 68.4171 33.5551 67.2466L34.5905 59.3959L30.5326 68.7133H27.3586L32.0484 57.9841ZM24.5238 55.5621C23.2752 55.5621 22.0703 56.1951 21.1711 57.3155L11.9521 68.7136H15.4203L17.6836 65.9103H22.3889L22.2103 68.7136H25.6785L26.3953 57.3155C26.4839 56.1808 25.8301 55.5621 24.5238 55.5621ZM22.5404 63.2576H19.8391L22.8153 59.0485L22.5404 63.2576ZM9.83814 67.7346C10.7013 67.1219 11.0096 66.7242 11.58 65.4032L12.5268 63.2478H12.5352L12.9127 62.3693L13.4117 61.2335H13.4008L13.6643 60.6202H7.7902L6.65211 63.2478H9.20861L8.44699 64.9911L8.29542 65.3327C8.13357 65.7304 7.70068 65.9108 6.97107 65.9108H4.8349H4.3622C4.01666 65.9108 3.806 65.66 3.87022 65.3888C3.88229 65.3483 3.92791 65.2428 3.99302 65.0923L4.07575 64.9003L6.43671 59.4658L6.64737 59.049C6.77197 58.7432 7.09567 58.527 7.47075 58.5115H8.06806H13.5979L14.8105 55.6939H8.56003C6.95052 55.6939 6.56901 55.7644 5.68654 56.1956C4.4945 56.7737 4.09501 57.261 3.3654 58.9081L0.705146 65.0269C0.321072 65.8953 0.0949947 66.453 0.0461827 66.6334C-0.186317 67.5734 0.499621 68.4572 1.60688 68.6388C1.95242 68.6937 2.38017 68.714 2.9171 68.714H6.70646C8.12201 68.714 8.79767 68.4919 9.83814 67.7346ZM46.8607 66.6136C46.5152 68.005 47.4516 68.7133 49.5724 68.7133H55.9744L57.2114 65.9101H51.7907H51.2962C50.8094 65.9101 50.6424 65.7142 50.7503 65.277L50.7618 65.2338C50.7815 65.1588 50.8008 65.0854 50.8363 65.0262L51.4683 63.5846H58.2159L59.4529 60.7658H52.6835L53.3026 59.3397C53.4619 59.0339 53.6726 58.7772 53.986 58.6314C54.1543 58.5622 54.2994 58.5108 54.4484 58.5108H55.029H60.4472L61.6572 55.6932H54.7888C52.7708 55.6932 51.1176 56.7383 50.3508 58.5263L47.0765 66.0008C46.9789 66.217 46.9095 66.3974 46.8607 66.6136ZM59.9508 65.9101H65.3253C66.164 65.9101 66.6034 65.6796 66.8282 65.1516L67.2495 64.2128L67.2919 64.0516C67.3522 63.8008 67.1518 63.5846 66.8063 63.5846H66.4415H64.0394C62.5006 63.5846 61.6143 62.6804 61.9277 61.4144C61.9579 61.296 61.9942 61.2044 62.037 61.096L62.0677 61.0178L63.2649 58.2755C63.6078 57.4263 64.516 56.5221 65.3908 56.1053C65.947 55.8533 66.7138 55.6932 67.5513 55.6932H74.2771L73.0376 58.5108H67.6836C66.8487 58.5108 66.3953 58.6864 66.1949 59.1391L65.8069 60.0229L65.7658 60.1889C65.6631 60.601 65.8815 60.7658 66.5867 60.7658H68.9643C70.701 60.7658 71.4306 61.5255 71.0851 62.9169C71.0517 63.047 71.0098 63.1542 70.9663 63.2655L70.9361 63.3433L69.7903 65.9662C69.0478 67.6634 67.3304 68.7133 65.2713 68.7133H58.7215L59.9508 65.9101Z" fill="#ffffff"/>
<path d="M75.7116 50.5347C75.298 51.6097 73.8118 52.484 72.3924 52.484H8.30603C6.88406 52.484 6.06838 51.6097 6.47429 50.5347L26.1866 1.94925C26.6028 0.874295 28.0877 0 29.5084 0H91.0617C92.4798 0 93.3032 0.874295 92.896 1.94925L75.7116 50.5347Z" fill="#ffffff"/>
<path d="M79.7603 23.6944H65.4763L52.387 32.6463L55.4827 23.6944H32.6284C33.6252 22.74 35.0844 22.1572 37.5802 21.7559L48.0517 20.0323C52.2251 19.3444 58.2406 17.4011 59.9015 12.5781C62.3382 5.48106 54.4268 4.01434 45.457 4.01434C38.4935 4.01434 29.0767 5.18365 25.2462 13.929H37.051C38.5038 10.6349 41.6149 10.3781 44.6028 10.3781C47.1641 10.3781 48.8892 10.9657 48.3844 12.4229C48.0196 13.4871 47.0446 14.1452 45.5829 14.402L36.9637 16.0144C29.9784 17.3306 22.3072 20.2891 18.7529 30.0593H42.5064L35.972 49.0573H46.7479L49.0896 42.2409L53.6433 39.323L57.746 49.0573H72.0672L64.2021 33.4991L79.7603 23.6944Z" fill="#181721"/>
</g>
<defs>
<clipPath id="clip0">
<rect width="93" height="69" fill="white"/>
</clipPath>
</defs>
</svg>
