<svg width="100" height="91" viewBox="0 0 100 91" fill="none" xmlns="http://www.w3.org/2000/svg">
<g clip-path="url(#clip0)">
<path d="M99.5118 46.8329C99.5118 43.43 98.107 40.1892 95.5558 37.7069L93.0904 35.3093C93.4828 33.8544 93.681 32.3584 93.681 30.8368C93.681 20.5465 84.5261 12.1747 73.2733 12.1747C71.9705 12.1747 70.6796 12.2895 69.4118 12.512C64.679 8.84661 58.7259 6.84265 52.4769 6.84265C44.666 6.84265 37.3159 9.99388 32.3112 15.4882L22.1443 26.6467L13.9929 29.1131C5.62339 31.6458 0 38.7668 0 46.8329C0 50.933 1.42698 54.8242 4.12682 58.0858C6.73668 61.2386 10.4458 63.5943 14.5711 64.7187L21.6323 66.643L29.0627 75.1371C34.075 80.8694 41.5466 84.1571 49.5615 84.1571H61.2231C65.8418 84.1571 70.3294 83.0552 74.297 80.9655C75.8669 81.3126 77.4787 81.4911 79.1041 81.4911C90.3569 81.4911 99.5118 73.1193 99.5118 62.829C99.5118 59.767 98.6875 56.7761 97.1462 54.1088C98.6931 51.9415 99.5118 49.4289 99.5118 46.8329ZM36.791 18.901C40.685 14.6264 46.4022 12.1747 52.4769 12.1747C55.9678 12.1747 59.3401 12.9789 62.3274 14.4881L32.6226 23.4761L36.791 18.901ZM61.2229 78.8251H49.5615C43.3281 78.8251 37.5163 76.2671 33.6161 71.8067L31.4362 69.3147L65.0933 78.487C63.8263 78.7095 62.5317 78.8251 61.2229 78.8251ZM79.1041 76.1591C77.6857 76.1591 76.2822 75.9726 74.9328 75.6047L16.2366 59.6086C10.1098 57.9388 5.83077 52.6851 5.83077 46.8329C5.83077 41.0709 9.847 35.9842 15.8245 34.1754L68.6901 18.1793C70.1649 17.733 71.7068 17.5067 73.2733 17.5067C81.311 17.5067 87.8503 23.4866 87.8503 30.8368C87.8503 32.6012 87.479 34.3156 86.7471 35.9323L86.7265 35.9792C84.0826 42.1457 85.3825 49.0883 90.1217 54.1006C92.4169 56.5208 93.681 59.6207 93.681 62.829C93.681 70.1792 87.1418 76.1591 79.1041 76.1591ZM93.3183 49.1164C91.7015 46.7819 90.9921 44.0423 91.2706 41.3229L91.3077 41.359C92.8381 42.8483 93.681 44.7923 93.681 46.8329C93.681 47.6135 93.5576 48.3811 93.3183 49.1164Z" fill="#571BD4"/>
<path d="M25.8999 40.2123C27.1943 39.8764 27.999 38.9328 27.999 37.7491C27.999 36.0375 26.2497 34.95 23.5036 34.95H17.7139V46.1467H23.7135C26.5996 46.1467 28.4188 44.947 28.4188 43.0436C28.4188 41.588 27.4392 40.4844 25.8999 40.2123ZM20.81 37.1252H23.3287C24.2383 37.1252 24.8154 37.5411 24.8154 38.261C24.8154 38.9808 24.2381 39.4285 23.3287 39.4285H20.81V37.1252ZM23.3287 43.9554H20.81V41.476H23.3287C24.483 41.476 25.2004 41.9399 25.2004 42.6917C25.2004 43.4915 24.4832 43.9554 23.3287 43.9554Z" fill="#571BD4"/>
<path d="M36.9064 34.9497H33.7053L28.4229 46.1464H31.6239L32.5161 44.0831H37.8685L38.7429 46.1464H42.0665L36.9064 34.9497ZM33.4256 41.9238L35.2099 37.7808L36.9589 41.9238H33.4256Z" fill="#571BD4"/>
<path d="M50.4623 34.95V41.8599L44.8125 34.95H42.0664V46.1467H44.9874V39.2527L50.6197 46.1467H53.366V34.95H50.4623Z" fill="#571BD4"/>
<path d="M59.6024 34.95H54.3374V46.1467H59.4799C63.4157 46.1467 66.1093 43.8594 66.1093 40.5482C66.1093 37.2212 63.4505 34.95 59.6024 34.95ZM59.6726 43.8754H57.451V37.2212H59.5324C61.5091 37.2212 62.9434 38.5807 62.9434 40.5642C62.9434 42.5317 61.579 43.8754 59.6726 43.8754Z" fill="#571BD4"/>
<path d="M73.5246 34.95H70.3235L65.041 46.1467H68.2421L69.1342 44.0834H74.4867L75.3611 46.1467H78.6846L73.5246 34.95ZM70.0436 41.9239L71.8278 37.7809L73.5769 41.9239H70.0436Z" fill="#571BD4"/>
<path d="M81.7977 34.9496H78.6841V46.1463H81.7977V34.9496Z" fill="#571BD4"/>
<path d="M26.1098 47.3914V54.3013L20.46 47.3914H17.7139V58.5881H20.6349V51.6941L26.2672 58.5881H29.0135V47.3914H26.1098Z" fill="#571BD4"/>
<path d="M37.4968 47.3914H34.2957L29.0132 58.5881H32.2143L33.1064 56.5248H38.4588L39.3333 58.5881H42.6568L37.4968 47.3914ZM34.0158 54.3653L35.8 50.2223L37.549 54.3653H34.0158Z" fill="#571BD4"/>
<path d="M52.7144 47.3751L49.3911 54.0453L46.0675 47.3751H42.6567V58.588H45.438V51.31L48.3765 57.4683H50.4054L53.344 51.31L53.3616 58.588H56.1077V47.3751H52.7144Z" fill="#571BD4"/>
<path d="M66.957 54.9088C66.0995 55.7087 64.9102 56.2206 63.8784 56.2206C61.9367 56.2206 60.4674 54.797 60.4674 52.9256C60.4674 51.0861 61.9367 49.6784 63.8784 49.6784C64.9627 49.6784 66.1522 50.2381 66.9569 51.1339L68.7586 49.1825C67.5341 48.031 65.6449 47.2952 63.8259 47.2952C60.1003 47.2952 57.2842 49.7264 57.2842 52.9574C57.2842 56.2364 60.0303 58.7157 63.721 58.7157C65.5227 58.7157 67.4643 57.8999 68.7761 56.6682L66.957 54.9088Z" fill="#571BD4"/>
<path d="M75.1685 47.2954C71.3904 47.2954 68.5566 49.7106 68.5566 52.9737C68.5566 56.2527 71.3902 58.7161 75.1685 58.7161C78.9642 58.7161 81.7977 56.2369 81.7977 52.9737C81.7979 49.7265 78.9644 47.2954 75.1685 47.2954ZM75.2035 56.3327C73.3318 56.3327 71.7402 54.8772 71.7402 52.9895C71.7402 51.1021 73.3146 49.6785 75.2035 49.6785C77.0925 49.6785 78.5968 51.1021 78.5968 52.9895C78.5968 54.8772 77.0927 56.3327 75.2035 56.3327Z" fill="#571BD4"/>
</g>
<defs>
<clipPath id="clip0">
<rect width="99.5118" height="91" fill="white" transform="translate(0 -0.00012207)"/>
</clipPath>
</defs>
</svg>
