<svg width="100" height="100" viewBox="0 0 100 100" fill="none" xmlns="http://www.w3.org/2000/svg">
<mask id="path-1-outside-1" maskUnits="userSpaceOnUse" x="51.9443" y="49.0302" width="37" height="36" fill="black">
<rect fill="white" x="51.9443" y="49.0302" width="37" height="36"/>
<path d="M88.1666 63.8241H76.414L74.3787 52.0302L66.8282 63.7031H54.9443L62.1666 70.719L56.2575 82.5129L69.2575 75.3761L79.4342 82.6338L77.5302 70.719"/>
</mask>
<path d="M88.1666 63.8241H76.414L74.3787 52.0302L66.8282 63.7031H54.9443L62.1666 70.719L56.2575 82.5129L69.2575 75.3761L79.4342 82.6338L77.5302 70.719" fill="#571BD4"/>
<path d="M76.414 63.8241L75.4286 63.9942L75.5718 64.8241H76.414V63.8241ZM74.3787 52.0302L75.3641 51.8601L74.9289 49.3384L73.539 51.4871L74.3787 52.0302ZM66.8282 63.7031V64.7031H67.3723L67.6678 64.2463L66.8282 63.7031ZM54.9443 63.7031V62.7031H52.4798L54.2476 64.4204L54.9443 63.7031ZM62.1666 70.719L63.0606 71.1669L63.3887 70.5121L62.8633 70.0017L62.1666 70.719ZM56.2575 82.5129L55.3634 82.0649L53.9262 84.9335L56.7387 83.3895L56.2575 82.5129ZM69.2575 75.3761L69.8381 74.5619L69.3268 74.1972L68.7762 74.4995L69.2575 75.3761ZM79.4342 82.6338L78.8536 83.448L80.7987 84.8352L80.4217 82.476L79.4342 82.6338ZM88.1666 62.8241H76.414V64.8241H88.1666V62.8241ZM77.3995 63.654L75.3641 51.8601L73.3932 52.2003L75.4286 63.9942L77.3995 63.654ZM73.539 51.4871L65.9885 63.16L67.6678 64.2463L75.2183 52.5733L73.539 51.4871ZM66.8282 62.7031H54.9443V64.7031H66.8282V62.7031ZM54.2476 64.4204L61.4698 71.4363L62.8633 70.0017L55.6411 62.9859L54.2476 64.4204ZM61.2725 70.271L55.3634 82.0649L57.1515 82.9608L63.0606 71.1669L61.2725 70.271ZM56.7387 83.3895L69.7387 76.2527L68.7762 74.4995L55.7762 81.6363L56.7387 83.3895ZM68.6768 76.1902L78.8536 83.448L80.0149 81.8197L69.8381 74.5619L68.6768 76.1902ZM80.4217 82.476L78.5177 70.5612L76.5427 70.8768L78.4468 82.7916L80.4217 82.476Z" fill="#571BD4" mask="url(#path-1-outside-1)"/>
<path d="M95.5141 61.5644H78.2002L75.453 45.674L65.3586 61.4467H63.4419C62.2919 59.6222 61.8447 56.9738 61.8447 55.3259C61.8447 52.6187 62.0364 49.9703 62.0364 46.498C62.0364 41.9074 60.5669 39.4944 56.6697 38.6117V38.4939C64.9114 37.4346 68.6808 32.3732 68.6808 25.3108C68.6808 15.247 61.3975 13.0694 51.878 13.0694H26.2586L15.3975 60.3873H29.0058L32.9669 43.1433H42.0391C46.8947 43.1433 48.8752 45.3209 48.8752 49.4995C48.8752 52.6775 48.4919 55.2082 48.4919 57.6212C48.4919 58.504 48.6836 60.6227 49.3864 61.4467L59.2252 71.0397L50.728 87.8129L68.8725 77.8667L82.4169 87.4597L79.9252 71.6283L95.5141 61.5644ZM46.128 34.3154H35.2669L37.8864 22.8979H47.9808C51.5586 22.8979 55.328 23.7807 55.328 27.7827C55.328 32.9029 51.0475 34.3154 46.128 34.3154ZM69.128 75.1006L56.478 82.0452L62.2919 70.6278L55.2641 63.8008H66.828L74.1114 52.4421L76.0919 63.9185H87.5919L77.2419 70.5689L79.0947 82.2218L69.128 75.1006Z" fill="#571BD4"/>
</svg>
