<svg width="91" height="65" viewBox="0 0 91 65" fill="none" xmlns="http://www.w3.org/2000/svg">
<path d="M34.9523 63.9214L14.6797 63.9438L14.6163 15.6628L0.0193988 15.6794L0 0.389317L49.1621 0.334849L49.1815 15.6249L34.8889 15.6403L34.9523 63.9214Z" fill="#571BD4"/>
<path d="M34.9523 63.9214L14.6797 63.9438L14.6163 15.6628L0.0193988 15.6794L0 0.389317L49.1621 0.334849L49.1815 15.6249L34.8889 15.6403L34.9523 63.9214Z" fill="#571BD4"/>
<path d="M90.1162 63.9509L38.4425 64.0078L38.4244 49.7994L61.4674 33.9365C65.6219 30.6747 70.5661 26.8685 70.5583 21.4384C70.5544 17.818 68.0752 14.9254 63.9182 14.929C57.5823 14.9361 55.8086 20.9118 55.5173 25.7086L38.3882 22.6503C40.2524 9.34504 50.7337 1.00707 65.385 0.99168C78.9475 0.976297 90.4385 7.66088 90.4567 21.0537C90.4644 27.7514 87.1062 32.7317 81.7671 37.0824L66.04 47.8691L64.458 48.7757L90.8891 48.7473L90.1162 63.9509Z" fill="#571BD4"/>
<path d="M90.1162 63.9509L38.4425 64.0078L38.4244 49.7994L61.4674 33.9365C65.6219 30.6747 70.5661 26.8685 70.5583 21.4384C70.5544 17.818 68.0752 14.9254 63.9182 14.929C57.5823 14.9361 55.8086 20.9118 55.5173 25.7086L38.3882 22.6503C40.2524 9.34505 50.7337 1.00707 65.385 0.99168C78.9475 0.976293 90.4385 7.66087 90.4567 21.0537C90.4644 27.7514 87.1062 32.7317 81.7671 37.0824L66.04 47.8691L64.458 48.7757L90.8891 48.7473L90.1162 63.9509Z" fill="#571BD4"/>
</svg>
