<svg width="188" height="80" viewBox="0 0 188 80" fill="none" xmlns="http://www.w3.org/2000/svg">
<path d="M161.728 34.943C158.586 35.6766 150.288 36.0842 150.288 36.0842L149.268 39.3992C149.268 39.3992 153.377 39.0459 156.384 39.3448C156.384 39.3448 157.351 39.2633 157.458 40.4317C157.512 41.6272 157.378 42.8772 157.378 42.8772C157.378 42.8772 157.297 43.6108 156.304 43.801C155.149 43.9912 147.361 44.3444 147.361 44.3444L146.099 48.6376C146.099 48.6376 145.642 49.6158 146.69 49.344C147.656 49.0723 155.82 47.4964 156.895 47.7137C158.022 47.9855 159.312 49.5614 158.936 50.9744C158.506 52.6862 150.342 57.9575 145.401 57.6043C145.401 57.6043 142.796 57.7673 140.62 54.2078C138.526 50.8113 141.345 44.4259 141.345 44.4259C141.345 44.4259 140.083 41.437 141.023 40.3502C141.023 40.3502 141.56 39.8882 143.172 39.7524L145.186 35.5679C145.186 35.5679 142.903 35.7038 141.56 34.0191C140.325 32.3888 140.218 31.6824 141.184 31.2476C142.205 30.7042 151.658 28.9923 158.157 29.2097C158.157 29.2097 160.439 28.938 162.454 32.9323C162.454 32.9323 163.367 34.5626 161.755 34.943H161.728ZM137.237 51.0287C136.431 53.0122 134.202 55.1045 131.516 53.8274C128.777 52.5232 124.454 43.6108 124.454 43.6108C124.454 43.6108 122.842 40.2958 122.52 40.4045C122.52 40.4045 122.171 39.7524 121.983 43.3934C121.714 47.0073 122.037 54.0448 120.56 55.1588C119.217 56.2457 117.606 55.7838 116.692 54.5067C115.941 53.2296 115.618 50.1592 116.048 44.8063C116.531 39.4535 117.74 33.7474 119.271 31.9812C120.882 30.1879 122.171 31.4922 122.654 31.9812C122.654 31.9812 124.722 33.8833 128.213 39.5078L128.804 40.5404C128.804 40.5404 131.973 45.8932 132.295 45.8661C132.295 45.8661 132.564 46.1378 132.779 45.9204C133.101 45.8389 132.994 44.0999 132.994 44.0999C132.994 44.0999 132.403 38.3123 129.449 28.5304C129.449 28.5304 129.019 27.2805 129.314 26.085C129.583 24.9981 130.738 25.5415 130.738 25.5415C130.738 25.5415 135.196 27.7153 137.371 35.0517C139.519 42.3881 138.069 49.0452 137.263 51.0287H137.237ZM115.377 32.1986C114.947 32.9594 114.759 34.0191 112.906 34.318C112.906 34.318 94.913 35.5951 94.0268 36.8722C94.0268 36.8722 93.436 37.633 94.4028 37.8232C95.4233 38.0406 99.5052 38.584 101.439 38.6927C103.534 38.6927 110.57 38.747 113.148 41.9533C113.148 41.9533 114.625 43.4749 114.571 46.9258C114.517 50.4581 113.9 51.708 112.53 52.9851C111.107 54.1806 98.9144 59.7237 91.0459 51.2461C91.0459 51.2461 87.4473 47.1703 92.3081 44.0727C92.3081 44.0727 95.7992 41.899 104.742 44.4259C104.742 44.4259 107.427 45.4041 107.32 46.4095C107.159 47.4964 105.091 48.5832 102.083 48.5289C99.183 48.4474 97.0346 47.0344 97.4642 47.279C97.8671 47.4148 94.3222 45.54 93.2212 46.8171C92.1469 48.0126 92.4155 48.7191 93.4897 49.4527C96.1752 51.0287 106.729 50.4581 109.871 46.8986C109.871 46.8986 111.133 45.4585 109.227 44.2901C107.347 43.2032 101.868 42.5239 99.7469 42.4424C97.7328 42.3337 90.1865 42.4424 89.0586 40.4589C89.0586 40.4589 87.9844 39.0459 89.166 35.1875C90.4014 31.1117 99.183 29.5358 102.996 29.2097C102.996 29.2097 113.47 28.775 115.43 30.9487C115.43 30.9487 115.699 31.4378 115.377 32.1714V32.1986ZM85.6749 56.0827C84.4127 57.0337 81.7272 56.6261 80.9484 55.5392C80.1964 54.5882 79.9279 50.8385 80.0622 44.9422C80.2501 38.9101 80.3307 31.5193 81.6735 30.3238C83.0162 29.1554 83.8219 30.1879 84.359 30.9759C84.8961 31.791 85.5943 32.6877 85.7017 34.5626C85.8629 36.4646 86.3194 46.2465 86.3194 46.2465C86.3194 46.2465 86.9102 55.1588 85.7017 56.0827H85.6749ZM88.3604 24.2916C84.6544 25.5687 82.13 25.1611 79.9816 24.2101C79.0417 25.9219 78.4777 26.4382 77.7795 26.5469C76.7053 26.6556 75.7654 24.9166 75.6311 24.3731C75.4162 23.9656 74.906 23.2319 75.5237 21.5744C73.429 19.6724 73.2678 17.1183 73.6438 15.4064C74.1272 13.3957 77.6721 5.84195 88.4141 4.94528C88.4141 4.94528 93.6777 4.56487 94.5908 7.39074H94.7519C94.7519 7.39074 99.8544 7.39074 99.7469 12.01C99.7469 16.6292 94.1074 22.3896 88.3604 24.3731V24.2916ZM93.1406 11.1405C89.7568 11.6839 84.547 16.2488 82.0494 20.0256C85.8897 20.7321 92.6035 20.4604 95.6113 14.3196C95.6113 14.3196 97.0346 10.4612 93.1406 11.1405ZM78.2897 14.1294C77.2155 15.8955 77.1618 16.9552 77.6721 17.6617C78.9342 15.7597 81.1632 12.7708 84.5201 10.434C81.942 10.7057 79.7668 11.7926 78.2897 14.1294ZM169.785 55.8925C167.314 62.0333 165.22 68.2556 164.011 77.5756C164.011 77.5756 163.743 79.3961 162.266 78.7983C160.789 78.2549 158.372 75.8094 157.834 72.3586C157.297 67.8481 159.285 60.2399 163.34 51.4906C162.158 49.5886 161.326 46.7627 161.997 42.7956C161.997 42.7956 163.071 35.4592 170.322 28.8293C170.322 28.8293 171.181 28.0957 171.665 28.3402C172.256 28.6119 172.014 30.9487 171.531 32.1443C171.101 33.2855 167.878 38.9372 167.878 38.9372C167.878 38.9372 165.864 42.7956 166.428 45.8117C170.242 39.8883 178.916 27.8783 184.287 31.6824C187.697 34.1278 187.697 42.0076 185.146 46.5725C183.132 50.1864 177.439 57.6586 169.839 55.9196L169.785 55.8925ZM181.01 37.4428C179.023 39.6165 175.478 43.7467 172.685 49.344C175.639 49.018 178.513 47.3605 179.399 46.5182C180.822 45.2411 184.099 41.7903 183.588 37.2254C183.588 37.2254 183.266 34.8343 181.01 37.4428ZM60.6996 59.0987C51.1929 62.0333 42.2234 60.6747 37.3357 59.3704C37.2015 61.3812 36.9866 62.2235 36.6643 62.5496C36.2884 62.9843 33.1732 64.7776 31.4545 62.2235C30.7025 61.0008 30.3265 58.7998 30.1117 56.7891C19.1011 51.7352 13.9987 44.2901 13.8375 44.0184C13.569 43.7466 11.0715 41.111 13.569 37.8504C15.9054 34.9158 23.6396 31.9541 30.5682 30.7857C30.8368 24.8079 31.4813 20.1887 32.3138 18.1508C33.3075 15.7053 34.5696 17.8791 35.6976 19.5094C36.6106 20.7321 37.1746 25.9763 37.2283 30.1607C41.74 29.9434 44.4792 30.2694 49.5011 31.2476C56.1074 32.3888 60.5117 35.8125 60.1625 39.6709C59.8403 43.4749 56.4028 45.0509 55.0601 45.1596C53.7173 45.2683 51.5689 44.2629 51.5689 44.2629C50.065 43.5564 51.4346 42.9043 53.1802 42.1435C55.1138 41.1925 54.6841 40.2415 54.6841 40.2415C53.9859 38.0677 45.4191 36.6276 36.906 36.6276C36.906 41.3827 37.094 49.2625 37.2283 53.8546C43.1901 54.9958 47.6481 54.7512 47.6481 54.7512C47.6481 54.7512 69.4007 54.1263 70.0184 40.0785C70.6897 26.0034 48.2657 12.5262 31.7499 8.28741C15.2608 3.91275 5.91528 7.01034 5.10963 7.41791C4.22341 7.85266 5.02906 8.01569 5.02906 8.01569C5.02906 8.01569 5.91528 8.15155 7.52658 8.69499C9.13789 9.23843 7.84885 10.0536 7.84885 10.0536C5.02906 11.0318 1.88702 10.4612 1.26935 9.15691C0.651684 7.87984 1.67218 6.71145 2.88066 4.99962C4.00857 3.23345 5.29761 3.2878 5.29761 3.2878C25.7075 -3.91274 50.629 8.99388 50.629 8.99388C73.9392 20.8951 77.9137 34.8886 77.4841 40.323C77.1081 45.6758 75.0671 54.7241 60.6996 59.1259V59.0987ZM15.8517 39.6709C13.5421 40.7577 15.1534 42.4967 15.1534 42.4967C19.504 47.1975 24.8213 50.1592 29.9237 52.0069C30.5145 43.8553 30.4608 40.948 30.4608 36.845C22.5654 37.3884 18.0001 38.6927 15.8517 39.6709Z" fill="#571BD4"/>
</svg>
