<svg width="206" height="31" viewBox="0 0 206 31" fill="none" xmlns="http://www.w3.org/2000/svg">
<path d="M17.2647 0.631927C8.07653 0.684941 0.572266 6.82051 0.572266 14.8467C0.572266 22.8729 8.85629 29.7673 18.8839 29.5598L28.6278 29.5849V22.5525H26.7875C26.2093 23.8784 23.5088 25.1754 21.5508 25.1754C20.5189 25.1754 17.9213 25.0468 16.9604 24.7382C15.2639 24.1935 12.8432 23.4116 10.7384 20.1685C10.1743 19.0317 8.58613 16.2613 8.94099 12.2201C9.11285 9.78439 10.8005 6.74391 13.8288 5.36701C15.1493 4.76662 16.4787 4.66811 18.8127 4.86229C20.4884 5.00169 22.1534 6.08182 22.7347 7.3782C23.1843 8.38083 23.0551 9.6026 22.5259 10.2985C22.4881 10.3482 22.4873 10.3922 22.4951 10.4396C22.5011 10.4756 22.5521 10.5357 22.5521 10.5357L23.4744 11.1963C23.4744 11.1963 23.737 11.3635 24.0437 11.356C24.2218 11.3517 24.5403 11.1745 24.5403 11.1745L29.8075 6.10712C26.5511 2.07901 20.7642 0.631927 17.2647 0.631927Z" fill="#571BD4"/>
<path d="M148.895 0.495911C139.154 0.495911 131.257 7.21273 131.257 15.4985C131.257 23.7844 139.154 30.5012 148.895 30.5012C158.636 30.5012 166.533 23.7844 166.533 15.4985C166.533 7.21273 158.636 0.495911 148.895 0.495911ZM149.01 5.1601C154.024 5.1601 156.712 8.4496 157.801 12.3706C158.113 13.493 157.987 17.2248 157.801 18.4675C157.234 22.2568 153.856 25.9495 148.953 25.8358C144.176 25.725 140.98 23.6861 139.99 18.2024C139.7 16.5983 139.695 14.6712 139.931 13.0598C140.616 8.38714 143.996 5.1601 149.01 5.1601H149.01Z" fill="#571BD4"/>
<path d="M46.3046 1.42712C46.3046 1.42712 38.5592 20.6403 37.1713 24.1392C35.7835 27.6381 34.2227 27.5324 34.2227 27.5324L34.3378 29.6523L43.6987 29.65L43.7063 27.6136C43.7063 27.6136 43.1056 27.5853 42.6652 27.2147C41.8109 26.4958 42.3515 25.0496 42.3515 25.0496L44.5159 19.9737L54.1285 19.9923C54.1285 19.9923 56.0022 24.2811 56.4611 25.6967C57.0599 27.5436 55.1898 27.5765 55.1898 27.5765V29.6465L67.0276 29.6407L67.02 27.5939C67.02 27.5939 66.315 27.4953 65.5653 26.8958C64.7148 26.2157 64.1358 24.813 64.1358 24.813L54.441 1.44684L46.3046 1.42712ZM49.0837 7.33447L52.293 15.5252L46.0769 15.5507L49.0837 7.33447Z" fill="#571BD4"/>
<path d="M70.8101 1.39697L70.7646 3.75226C70.7646 3.75226 71.517 3.9499 72.237 4.68231C72.6188 5.07063 72.3825 9.99939 72.3825 9.99939L72.3699 25.7767C72.3699 25.7767 72.6151 26.3985 71.7918 27.0233C71.481 27.2592 71.2057 27.5092 70.7254 27.5475L70.6685 29.6465L81.6397 29.6708L81.6663 27.5359C81.6663 27.5359 81.2782 27.3956 80.6695 26.8923C80.3259 26.6082 80.1142 26.1994 80.1192 25.7917C80.1284 24.3665 80.1648 22.997 80.1571 21.6053C84.0002 20.7568 87.3179 19.3178 88.6111 18.8813C93.4721 17.1031 97.2441 14.2798 97.0232 9.24329C96.9815 5.67501 95.0073 2.75024 90.778 2.08929C88.8501 1.57863 87.9649 1.4894 87.2044 1.45032L70.8101 1.39697ZM83.3576 5.39707C84.541 5.37624 85.9348 5.62481 87.0078 6.12027C88.3452 6.9342 89.1588 7.77735 89.1588 9.56104C89.2139 10.3996 88.9511 11.1206 88.5111 11.8537C88.053 12.5547 86.6671 13.9005 85.792 14.6704C83.2337 16.3471 82.3182 16.8386 80.2858 17.6962L80.2533 5.74341C81.3364 5.55613 82.3079 5.40345 83.3576 5.39707Z" fill="#571BD4"/>
<path d="M117.189 0.650665C108.001 0.703679 100.497 6.83925 100.497 14.8655C100.497 22.8917 108.781 29.7861 118.809 29.5785L128.553 29.6037V22.5712H126.712C126.134 23.8972 123.434 25.1941 121.476 25.1941C120.444 25.1941 117.846 25.0655 116.885 24.757C115.189 24.2123 112.768 23.4303 110.663 20.1873C110.099 19.0504 108.511 16.2801 108.866 12.2388C109.038 9.80313 110.725 6.76265 113.754 5.38575C115.074 4.78536 116.403 4.68685 118.738 4.88103C120.413 5.02043 122.078 6.10056 122.66 7.39694C123.109 8.39957 122.98 9.62134 122.451 10.3173C122.413 10.3669 122.412 10.4109 122.42 10.4583C122.426 10.4944 122.477 10.5545 122.477 10.5545L123.399 11.215C123.399 11.215 123.662 11.3823 123.969 11.3748C124.147 11.3704 124.465 11.1933 124.465 11.1933L129.732 6.12586C126.476 2.09774 120.689 0.650665 117.189 0.650665Z" fill="#571BD4"/>
<path d="M170.941 1.45264L170.952 3.47626C170.952 3.47626 171.917 3.71447 172.3 3.99231C172.738 4.30995 172.628 4.87366 172.628 4.87366C172.628 4.87366 169.126 24.8208 169.05 25.191C168.968 25.5893 168.853 26.5199 168.242 27.0372C167.635 27.5517 166.934 27.6553 166.934 27.6553L166.924 29.6511H176.727V27.7864C176.727 27.7864 175.93 27.7298 175.398 27.2425C174.866 26.7552 175.02 25.416 175.02 25.416L177.432 10.3461L182.339 23.3159L188.316 23.3912L193.171 9.4242L195.881 25.4902C195.881 25.4902 196.207 26.698 195.502 27.3179C194.96 27.7949 194.174 27.8618 194.174 27.8618V29.7265H205.531L205.521 27.7307C205.521 27.7307 205.267 27.8105 204.622 27.3364C204.242 27.0576 204.06 25.8143 203.978 25.416C203.902 25.0458 200.842 4.97455 200.842 4.97455C200.842 4.97455 200.789 4.14577 201.285 3.72211C201.642 3.41675 202.374 3.1272 202.374 3.1272L202.356 1.47467L190.565 1.46191L186.25 12.8557L182.135 1.46191L170.941 1.45264Z" fill="#571BD4"/>
</svg>
