<svg width="227" height="38" viewBox="0 0 227 38" fill="none" xmlns="http://www.w3.org/2000/svg">
<path d="M21.2647 4.63193C12.0765 4.68494 4.57227 10.8205 4.57227 18.8467C4.57227 26.8729 12.8563 33.7673 22.8839 33.5598L32.6278 33.5849V26.5525H30.7875C30.2093 27.8784 27.5088 29.1754 25.5508 29.1754C24.5189 29.1754 21.9213 29.0468 20.9604 28.7382C19.2639 28.1935 16.8432 27.4116 14.7384 24.1685C14.1743 23.0317 12.5861 20.2613 12.941 16.2201C13.1129 13.7844 14.8005 10.7439 17.8288 9.36701C19.1493 8.76662 20.4787 8.66811 22.8127 8.86229C24.4884 9.00169 26.1534 10.0818 26.7347 11.3782C27.1843 12.3808 27.0551 13.6026 26.5259 14.2985C26.4881 14.3482 26.4873 14.3922 26.4951 14.4396C26.5011 14.4756 26.5521 14.5357 26.5521 14.5357L27.4744 15.1963C27.4744 15.1963 27.737 15.3635 28.0437 15.356C28.2218 15.3517 28.5403 15.1745 28.5403 15.1745L33.8075 10.1071C30.5511 6.07901 24.7642 4.63193 21.2647 4.63193Z" fill="#571BD4"/>
<path d="M152.895 4.49591C143.154 4.49591 135.257 11.2127 135.257 19.4985C135.257 27.7844 143.154 34.5012 152.895 34.5012C162.636 34.5012 170.533 27.7844 170.533 19.4985C170.533 11.2127 162.636 4.49591 152.895 4.49591ZM153.01 9.1601C158.024 9.1601 160.712 12.4496 161.801 16.3706C162.113 17.493 161.987 21.2248 161.801 22.4675C161.234 26.2568 157.856 29.9495 152.953 29.8358C148.176 29.725 144.98 27.6861 143.99 22.2024C143.7 20.5983 143.695 18.6712 143.931 17.0598C144.616 12.3871 147.996 9.1601 153.01 9.1601H153.01Z" fill="#571BD4"/>
<path d="M50.3046 5.42712C50.3046 5.42712 42.5592 24.6403 41.1713 28.1392C39.7835 31.6381 38.2227 31.5324 38.2227 31.5324L38.3378 33.6523L47.6987 33.65L47.7063 31.6136C47.7063 31.6136 47.1056 31.5853 46.6652 31.2147C45.8109 30.4958 46.3515 29.0496 46.3515 29.0496L48.5159 23.9737L58.1285 23.9923C58.1285 23.9923 60.0022 28.2811 60.4611 29.6967C61.0599 31.5436 59.1898 31.5765 59.1898 31.5765V33.6465L71.0276 33.6407L71.02 31.5939C71.02 31.5939 70.315 31.4953 69.5653 30.8958C68.7148 30.2157 68.1358 28.813 68.1358 28.813L58.441 5.44684L50.3046 5.42712ZM53.0837 11.3345L56.293 19.5252L50.0769 19.5507L53.0837 11.3345Z" fill="#571BD4"/>
<path d="M74.8101 5.39697L74.7646 7.75226C74.7646 7.75226 75.517 7.9499 76.237 8.68231C76.6188 9.07063 76.3825 13.9994 76.3825 13.9994L76.3699 29.7767C76.3699 29.7767 76.6151 30.3985 75.7918 31.0233C75.481 31.2592 75.2057 31.5092 74.7254 31.5475L74.6685 33.6465L85.6397 33.6708L85.6663 31.5359C85.6663 31.5359 85.2782 31.3956 84.6695 30.8923C84.3259 30.6082 84.1142 30.1994 84.1192 29.7917C84.1284 28.3665 84.1648 26.997 84.1571 25.6053C88.0002 24.7568 91.3179 23.3178 92.6111 22.8813C97.4721 21.1031 101.244 18.2798 101.023 13.2433C100.982 9.67501 99.0073 6.75024 94.778 6.08929C92.8501 5.57863 91.9649 5.4894 91.2044 5.45032L74.8101 5.39697ZM87.3576 9.39707C88.541 9.37624 89.9348 9.62481 91.0078 10.1203C92.3452 10.9342 93.1588 11.7774 93.1588 13.561C93.2139 14.3996 92.9511 15.1206 92.5111 15.8537C92.053 16.5547 90.6671 17.9005 89.792 18.6704C87.2337 20.3471 86.3182 20.8386 84.2858 21.6962L84.2533 9.74341C85.3364 9.55613 86.3079 9.40345 87.3576 9.39707Z" fill="#571BD4"/>
<path d="M121.189 4.65067C112.001 4.70368 104.497 10.8393 104.497 18.8655C104.497 26.8917 112.781 33.7861 122.809 33.5785L132.553 33.6037V26.5712H130.712C130.134 27.8972 127.434 29.1941 125.476 29.1941C124.444 29.1941 121.846 29.0655 120.885 28.757C119.189 28.2123 116.768 27.4303 114.663 24.1873C114.099 23.0504 112.511 20.2801 112.866 16.2388C113.038 13.8031 114.725 10.7627 117.754 9.38575C119.074 8.78536 120.403 8.68685 122.738 8.88103C124.413 9.02043 126.078 10.1006 126.66 11.3969C127.109 12.3996 126.98 13.6213 126.451 14.3173C126.413 14.3669 126.412 14.4109 126.42 14.4583C126.426 14.4944 126.477 14.5545 126.477 14.5545L127.399 15.215C127.399 15.215 127.662 15.3823 127.969 15.3748C128.147 15.3704 128.465 15.1933 128.465 15.1933L133.732 10.1259C130.476 6.09774 124.689 4.65067 121.189 4.65067Z" fill="#571BD4"/>
<path d="M174.941 5.45264L174.952 7.47626C174.952 7.47626 175.917 7.71447 176.3 7.99231C176.738 8.30995 176.628 8.87366 176.628 8.87366C176.628 8.87366 173.126 28.8208 173.05 29.191C172.968 29.5893 172.853 30.5199 172.242 31.0372C171.635 31.5517 170.934 31.6553 170.934 31.6553L170.924 33.6511H180.727V31.7864C180.727 31.7864 179.93 31.7298 179.398 31.2425C178.866 30.7552 179.02 29.416 179.02 29.416L181.432 14.3461L186.339 27.3159L192.316 27.3912L197.171 13.4242L199.881 29.4902C199.881 29.4902 200.207 30.698 199.502 31.3179C198.96 31.7949 198.174 31.8618 198.174 31.8618V33.7265H209.531L209.521 31.7307C209.521 31.7307 209.267 31.8105 208.622 31.3364C208.242 31.0576 208.06 29.8143 207.978 29.416C207.902 29.0458 204.842 8.97455 204.842 8.97455C204.842 8.97455 204.789 8.14577 205.285 7.72211C205.642 7.41675 206.374 7.1272 206.374 7.1272L206.356 5.47467L194.565 5.46191L190.25 16.8557L186.135 5.46191L174.941 5.45264Z" fill="#571BD4"/>
</svg>
