<svg width="100" height="40" viewBox="0 0 100 40" fill="none" xmlns="http://www.w3.org/2000/svg">
<path d="M97.8335 23.4806C98.8316 21.4778 99.447 18.6483 99.447 17.2124C99.451 12.7042 97.3147 8.58475 93.8884 5.63307C90.4661 2.68139 85.6906 0.839772 80.4693 0.839772C75.25 0.839772 70.4765 2.68139 67.0601 5.63307C63.6318 8.58475 61.4995 12.7042 61.4995 17.2124C61.4995 21.7154 63.6397 25.8332 67.0601 28.7848C75.0883 35.7117 81.7377 31.1696 81.7377 37.1952V39.3304H92.3755V36.4059C92.3755 26.4425 83.0809 25.1746 80.3687 24.6128C78.7729 24.2818 72.1216 23.1683 72.1216 17.2124C72.1216 15.2434 73.0526 13.4358 74.5715 12.1152C76.0943 10.8032 78.1536 10.0054 80.4693 10.0054C82.791 10.0054 84.8424 10.8032 86.3731 12.1152C87.8939 13.4358 88.7855 15.2078 88.823 17.2124C88.8802 20.2676 86.0279 22.8917 84.8878 23.4806H97.8335Z" fill="#571BD4"/>
<path d="M49.5826 2.02854V10.9276H31.2104V13.6383V19.9405V28.9788H41.6609V19.9405H49.5826V28.9788H60.035V19.9405V10.9276V2.02854H49.5826Z" fill="#571BD4"/>
<path d="M98.369 23.4878C99.379 21.485 100 18.6521 100 17.2196C100.006 12.7114 97.8423 8.59538 94.3648 5.6454C90.8931 2.69033 86.0486 0.848721 80.7484 0.850418C75.4561 0.848721 70.6116 2.69033 67.1439 5.6454C63.6663 8.59538 61.5005 12.7114 61.5005 17.2196C61.5005 21.7209 63.6722 25.8421 67.1439 28.792C75.2904 35.7138 82.0385 31.1751 82.0385 37.1956V39.3308H92.8302V36.408C92.8302 26.4497 83.3995 25.1818 80.6498 24.6183C79.0264 24.2856 72.2784 23.1755 72.2784 17.2196C72.2784 15.254 73.2252 13.443 74.7638 12.1208C76.3142 10.8104 78.3991 10.0144 80.7484 10.0127C83.1056 10.0144 85.1925 10.8104 86.741 12.1208C88.2835 13.443 89.1869 15.215 89.2263 17.2196C89.2816 20.2748 86.3899 22.8955 85.232 23.4878H98.369Z" fill="#571BD4"/>
<path d="M31.1956 1.98688H0V10.9828H10.3814V28.9797H20.8141V10.9828H31.1956V1.98688Z" fill="#571BD4"/>
</svg>
